<mxfile host="app.diagrams.net" modified="2022-10-18T06:34:30.987Z" agent="5.0 (Windows NT 10.0; Win64; x64) AppleWebKit/537.36 (KHTML, like Gecko) Chrome/105.0.0.0 Safari/537.36" etag="y3jivZcCmWPPzqaFOIBD" version="20.4.0" type="github">
  <diagram id="r_1KAD-j-phRz1HIpMgc" name="第 1 页">
    <mxGraphModel dx="1422" dy="1875" grid="0" gridSize="10" guides="1" tooltips="1" connect="1" arrows="1" fold="1" page="1" pageScale="1" pageWidth="827" pageHeight="1169" math="0" shadow="0">
      <root>
        <mxCell id="0" />
        <mxCell id="1" parent="0" />
        <mxCell id="S6ULCEjZMt_Agh5j2Gnt-5" value="" style="edgeStyle=orthogonalEdgeStyle;rounded=0;orthogonalLoop=1;jettySize=auto;html=1;fontFamily=Comic Sans MS;fontColor=#FFFFFF;" parent="1" source="S6ULCEjZMt_Agh5j2Gnt-1" target="S6ULCEjZMt_Agh5j2Gnt-4" edge="1">
          <mxGeometry relative="1" as="geometry" />
        </mxCell>
        <mxCell id="S6ULCEjZMt_Agh5j2Gnt-1" value="&lt;font face=&quot;Comic Sans MS&quot; color=&quot;#ffffff&quot;&gt;&lt;span style=&quot;&quot;&gt;Spark&lt;br&gt;DataSource&lt;br&gt;.resolveRelation()&lt;/span&gt;&lt;/font&gt;" style="rounded=1;whiteSpace=wrap;html=1;fillColor=#20C997;strokeWidth=0;align=center;horizontal=1;verticalAlign=middle;labelPosition=center;verticalLabelPosition=middle;fontStyle=2" parent="1" vertex="1">
          <mxGeometry x="180" y="-1020" width="150" height="60" as="geometry" />
        </mxCell>
        <mxCell id="S6ULCEjZMt_Agh5j2Gnt-7" value="" style="edgeStyle=orthogonalEdgeStyle;rounded=0;orthogonalLoop=1;jettySize=auto;html=1;fontFamily=Comic Sans MS;fontColor=#FFFFFF;" parent="1" source="S6ULCEjZMt_Agh5j2Gnt-4" target="S6ULCEjZMt_Agh5j2Gnt-6" edge="1">
          <mxGeometry relative="1" as="geometry" />
        </mxCell>
        <mxCell id="S6ULCEjZMt_Agh5j2Gnt-4" value="&lt;font face=&quot;Comic Sans MS&quot; color=&quot;#ffffff&quot;&gt;&lt;span style=&quot;&quot;&gt;Hudi&lt;br&gt;DefaultSource&lt;br&gt;.createRelation()&lt;/span&gt;&lt;/font&gt;" style="rounded=1;whiteSpace=wrap;html=1;fillColor=#20C997;strokeWidth=0;align=center;horizontal=1;verticalAlign=middle;labelPosition=center;verticalLabelPosition=middle;fontStyle=2" parent="1" vertex="1">
          <mxGeometry x="410" y="-1020" width="150" height="60" as="geometry" />
        </mxCell>
        <mxCell id="S6ULCEjZMt_Agh5j2Gnt-14" value="" style="edgeStyle=orthogonalEdgeStyle;rounded=0;orthogonalLoop=1;jettySize=auto;html=1;fontFamily=Comic Sans MS;fontColor=#FFFFFF;" parent="1" source="S6ULCEjZMt_Agh5j2Gnt-6" target="S6ULCEjZMt_Agh5j2Gnt-13" edge="1">
          <mxGeometry relative="1" as="geometry" />
        </mxCell>
        <mxCell id="S6ULCEjZMt_Agh5j2Gnt-6" value="&lt;font face=&quot;Comic Sans MS&quot; color=&quot;#ffffff&quot;&gt;&lt;span style=&quot;&quot;&gt;DefaultSource&lt;br&gt;.createRelation()&lt;/span&gt;&lt;/font&gt;" style="rounded=1;whiteSpace=wrap;html=1;fillColor=#20C997;strokeWidth=0;align=center;horizontal=1;verticalAlign=middle;labelPosition=center;verticalLabelPosition=middle;fontStyle=2" parent="1" vertex="1">
          <mxGeometry x="640" y="-1020" width="150" height="60" as="geometry" />
        </mxCell>
        <mxCell id="S6ULCEjZMt_Agh5j2Gnt-12" style="edgeStyle=orthogonalEdgeStyle;rounded=0;orthogonalLoop=1;jettySize=auto;html=1;exitX=0.5;exitY=1;exitDx=0;exitDy=0;fontFamily=Comic Sans MS;fontColor=#FFFFFF;" parent="1" source="S6ULCEjZMt_Agh5j2Gnt-10" target="S6ULCEjZMt_Agh5j2Gnt-1" edge="1">
          <mxGeometry relative="1" as="geometry" />
        </mxCell>
        <mxCell id="S6ULCEjZMt_Agh5j2Gnt-10" value="&lt;font face=&quot;Comic Sans MS&quot; color=&quot;#ffffff&quot;&gt;df.write.format(&quot;hudi&quot;)&lt;/font&gt;" style="rounded=1;whiteSpace=wrap;html=1;fillColor=#20C997;strokeWidth=0;align=center;horizontal=1;verticalAlign=middle;labelPosition=center;verticalLabelPosition=middle;fontStyle=2" parent="1" vertex="1">
          <mxGeometry x="180" y="-1160" width="150" height="60" as="geometry" />
        </mxCell>
        <mxCell id="S6ULCEjZMt_Agh5j2Gnt-16" value="" style="edgeStyle=orthogonalEdgeStyle;rounded=0;orthogonalLoop=1;jettySize=auto;html=1;fontFamily=Comic Sans MS;fontColor=#FFFFFF;" parent="1" source="S6ULCEjZMt_Agh5j2Gnt-13" target="S6ULCEjZMt_Agh5j2Gnt-15" edge="1">
          <mxGeometry relative="1" as="geometry" />
        </mxCell>
        <mxCell id="S6ULCEjZMt_Agh5j2Gnt-22" style="edgeStyle=orthogonalEdgeStyle;orthogonalLoop=1;jettySize=auto;html=1;exitX=0;exitY=0.5;exitDx=0;exitDy=0;entryX=1;entryY=0.5;entryDx=0;entryDy=0;fontFamily=Comic Sans MS;fontColor=#FFFFFF;rounded=1;" parent="1" source="S6ULCEjZMt_Agh5j2Gnt-13" target="S6ULCEjZMt_Agh5j2Gnt-19" edge="1">
          <mxGeometry relative="1" as="geometry" />
        </mxCell>
        <mxCell id="S6ULCEjZMt_Agh5j2Gnt-23" style="edgeStyle=orthogonalEdgeStyle;rounded=1;orthogonalLoop=1;jettySize=auto;html=1;exitX=0;exitY=0.5;exitDx=0;exitDy=0;entryX=1;entryY=0.5;entryDx=0;entryDy=0;fontFamily=Comic Sans MS;fontColor=#FFFFFF;" parent="1" source="S6ULCEjZMt_Agh5j2Gnt-13" target="S6ULCEjZMt_Agh5j2Gnt-21" edge="1">
          <mxGeometry relative="1" as="geometry" />
        </mxCell>
        <mxCell id="S6ULCEjZMt_Agh5j2Gnt-13" value="&lt;font face=&quot;Comic Sans MS&quot; color=&quot;#ffffff&quot;&gt;HoodieSparkSqlWriter&lt;br&gt;.write()&lt;/font&gt;" style="rounded=1;whiteSpace=wrap;html=1;fillColor=#20C997;strokeWidth=0;align=center;horizontal=1;verticalAlign=middle;labelPosition=center;verticalLabelPosition=middle;fontStyle=2" parent="1" vertex="1">
          <mxGeometry x="640" y="-880" width="150" height="60" as="geometry" />
        </mxCell>
        <mxCell id="S6ULCEjZMt_Agh5j2Gnt-18" value="" style="edgeStyle=orthogonalEdgeStyle;rounded=0;orthogonalLoop=1;jettySize=auto;html=1;fontFamily=Comic Sans MS;fontColor=#FFFFFF;" parent="1" source="S6ULCEjZMt_Agh5j2Gnt-15" target="S6ULCEjZMt_Agh5j2Gnt-17" edge="1">
          <mxGeometry relative="1" as="geometry" />
        </mxCell>
        <mxCell id="S6ULCEjZMt_Agh5j2Gnt-15" value="&lt;font face=&quot;Comic Sans MS&quot; color=&quot;#ffffff&quot;&gt;DataSourceUtils&lt;br&gt;.doWriteOperation&lt;/font&gt;" style="rounded=1;whiteSpace=wrap;html=1;fillColor=#20C997;strokeWidth=0;align=center;horizontal=1;verticalAlign=middle;labelPosition=center;verticalLabelPosition=middle;fontStyle=2" parent="1" vertex="1">
          <mxGeometry x="410" y="-880" width="150" height="60" as="geometry" />
        </mxCell>
        <mxCell id="S6ULCEjZMt_Agh5j2Gnt-38" style="edgeStyle=orthogonalEdgeStyle;rounded=1;orthogonalLoop=1;jettySize=auto;html=1;exitX=0;exitY=0.5;exitDx=0;exitDy=0;entryX=0.5;entryY=1;entryDx=0;entryDy=0;fontFamily=Comic Sans MS;fontColor=#FFFFFF;" parent="1" source="S6ULCEjZMt_Agh5j2Gnt-17" target="S6ULCEjZMt_Agh5j2Gnt-33" edge="1">
          <mxGeometry relative="1" as="geometry" />
        </mxCell>
        <mxCell id="S6ULCEjZMt_Agh5j2Gnt-44" style="edgeStyle=orthogonalEdgeStyle;rounded=1;orthogonalLoop=1;jettySize=auto;html=1;exitX=0;exitY=0.5;exitDx=0;exitDy=0;entryX=0.553;entryY=0.983;entryDx=0;entryDy=0;entryPerimeter=0;fontFamily=Comic Sans MS;fontColor=#FFFFFF;" parent="1" source="S6ULCEjZMt_Agh5j2Gnt-17" target="S6ULCEjZMt_Agh5j2Gnt-35" edge="1">
          <mxGeometry relative="1" as="geometry" />
        </mxCell>
        <mxCell id="S6ULCEjZMt_Agh5j2Gnt-45" style="edgeStyle=orthogonalEdgeStyle;rounded=1;orthogonalLoop=1;jettySize=auto;html=1;exitX=0;exitY=0.5;exitDx=0;exitDy=0;entryX=0.5;entryY=1;entryDx=0;entryDy=0;fontFamily=Comic Sans MS;fontColor=#FFFFFF;" parent="1" source="S6ULCEjZMt_Agh5j2Gnt-17" target="S6ULCEjZMt_Agh5j2Gnt-26" edge="1">
          <mxGeometry relative="1" as="geometry" />
        </mxCell>
        <mxCell id="S6ULCEjZMt_Agh5j2Gnt-46" style="edgeStyle=orthogonalEdgeStyle;rounded=1;orthogonalLoop=1;jettySize=auto;html=1;exitX=0;exitY=0.5;exitDx=0;exitDy=0;entryX=0;entryY=0.5;entryDx=0;entryDy=0;fontFamily=Comic Sans MS;fontColor=#FFFFFF;" parent="1" source="S6ULCEjZMt_Agh5j2Gnt-17" target="S6ULCEjZMt_Agh5j2Gnt-24" edge="1">
          <mxGeometry relative="1" as="geometry" />
        </mxCell>
        <mxCell id="S6ULCEjZMt_Agh5j2Gnt-48" style="edgeStyle=orthogonalEdgeStyle;rounded=1;orthogonalLoop=1;jettySize=auto;html=1;exitX=0;exitY=0.5;exitDx=0;exitDy=0;entryX=0.5;entryY=0;entryDx=0;entryDy=0;fontFamily=Comic Sans MS;fontColor=#FFFFFF;" parent="1" source="S6ULCEjZMt_Agh5j2Gnt-17" target="S6ULCEjZMt_Agh5j2Gnt-40" edge="1">
          <mxGeometry relative="1" as="geometry">
            <Array as="points">
              <mxPoint x="160" y="-850" />
              <mxPoint x="160" y="-706" />
              <mxPoint x="485" y="-706" />
            </Array>
          </mxGeometry>
        </mxCell>
        <mxCell id="S6ULCEjZMt_Agh5j2Gnt-17" value="&lt;font face=&quot;Comic Sans MS&quot; color=&quot;#ffffff&quot;&gt;SparkRDDWriteClient&lt;br&gt;&lt;/font&gt;" style="rounded=1;whiteSpace=wrap;html=1;fillColor=#20C997;strokeWidth=0;align=center;horizontal=1;verticalAlign=middle;labelPosition=center;verticalLabelPosition=middle;fontStyle=2" parent="1" vertex="1">
          <mxGeometry x="180" y="-880" width="150" height="60" as="geometry" />
        </mxCell>
        <mxCell id="S6ULCEjZMt_Agh5j2Gnt-19" value="&lt;font face=&quot;Comic Sans MS&quot; color=&quot;#ffffff&quot;&gt;DataSourceUtils&lt;br&gt;.doDeletePartitionsOperation&lt;/font&gt;" style="rounded=1;whiteSpace=wrap;html=1;fillColor=#20C997;strokeWidth=0;align=center;horizontal=1;verticalAlign=middle;labelPosition=center;verticalLabelPosition=middle;fontStyle=2" parent="1" vertex="1">
          <mxGeometry x="410" y="-800" width="150" height="60" as="geometry" />
        </mxCell>
        <mxCell id="S6ULCEjZMt_Agh5j2Gnt-21" value="&lt;font face=&quot;Comic Sans MS&quot; color=&quot;#ffffff&quot;&gt;&lt;br&gt;DataSourceUtils&lt;br&gt;.doDeleteOperation&lt;br&gt;&lt;/font&gt;" style="rounded=1;whiteSpace=wrap;html=1;fillColor=#20C997;strokeWidth=0;align=center;horizontal=1;verticalAlign=middle;labelPosition=center;verticalLabelPosition=middle;fontStyle=2" parent="1" vertex="1">
          <mxGeometry x="410" y="-950" width="150" height="60" as="geometry" />
        </mxCell>
        <mxCell id="S6ULCEjZMt_Agh5j2Gnt-24" value="&lt;font face=&quot;Comic Sans MS&quot; color=&quot;#ffffff&quot;&gt;bulkInsert&lt;/font&gt;" style="rounded=1;whiteSpace=wrap;html=1;fillColor=#20C997;strokeWidth=0;align=center;horizontal=1;verticalAlign=middle;labelPosition=center;verticalLabelPosition=middle;fontStyle=2" parent="1" vertex="1">
          <mxGeometry x="180" y="-668" width="150" height="60" as="geometry" />
        </mxCell>
        <mxCell id="S6ULCEjZMt_Agh5j2Gnt-51" style="edgeStyle=orthogonalEdgeStyle;rounded=1;orthogonalLoop=1;jettySize=auto;html=1;exitX=1;exitY=0.5;exitDx=0;exitDy=0;entryX=0.5;entryY=0;entryDx=0;entryDy=0;fontFamily=Comic Sans MS;fontColor=#FFFFFF;" parent="1" source="S6ULCEjZMt_Agh5j2Gnt-26" target="S6ULCEjZMt_Agh5j2Gnt-49" edge="1">
          <mxGeometry relative="1" as="geometry">
            <Array as="points">
              <mxPoint x="368" y="-570" />
              <mxPoint x="368" y="-500" />
              <mxPoint x="255" y="-500" />
            </Array>
          </mxGeometry>
        </mxCell>
        <mxCell id="S6ULCEjZMt_Agh5j2Gnt-54" style="edgeStyle=orthogonalEdgeStyle;rounded=1;orthogonalLoop=1;jettySize=auto;html=1;exitX=1;exitY=0.5;exitDx=0;exitDy=0;entryX=0;entryY=0.5;entryDx=0;entryDy=0;fontFamily=Comic Sans MS;fontColor=#FFFFFF;" parent="1" source="S6ULCEjZMt_Agh5j2Gnt-26" target="S6ULCEjZMt_Agh5j2Gnt-52" edge="1">
          <mxGeometry relative="1" as="geometry">
            <Array as="points">
              <mxPoint x="370" y="-570" />
              <mxPoint x="370" y="-430" />
            </Array>
          </mxGeometry>
        </mxCell>
        <mxCell id="S6ULCEjZMt_Agh5j2Gnt-57" style="orthogonalLoop=1;jettySize=auto;html=1;exitX=1;exitY=0.5;exitDx=0;exitDy=0;entryX=0.5;entryY=0;entryDx=0;entryDy=0;fontFamily=Comic Sans MS;fontColor=#FFFFFF;rounded=1;edgeStyle=orthogonalEdgeStyle;" parent="1" source="S6ULCEjZMt_Agh5j2Gnt-26" target="S6ULCEjZMt_Agh5j2Gnt-55" edge="1">
          <mxGeometry relative="1" as="geometry">
            <Array as="points">
              <mxPoint x="369" y="-570" />
              <mxPoint x="369" y="-496" />
              <mxPoint x="715" y="-496" />
            </Array>
          </mxGeometry>
        </mxCell>
        <mxCell id="S6ULCEjZMt_Agh5j2Gnt-26" value="&lt;font face=&quot;Comic Sans MS&quot; color=&quot;#ffffff&quot;&gt;upsert&lt;/font&gt;" style="rounded=1;whiteSpace=wrap;html=1;fillColor=#20C997;strokeWidth=0;align=center;horizontal=1;verticalAlign=middle;labelPosition=center;verticalLabelPosition=middle;fontStyle=2" parent="1" vertex="1">
          <mxGeometry x="180" y="-600" width="150" height="60" as="geometry" />
        </mxCell>
        <mxCell id="S6ULCEjZMt_Agh5j2Gnt-33" value="&lt;font face=&quot;Comic Sans MS&quot; color=&quot;#ffffff&quot;&gt;insertOverwrite&lt;/font&gt;" style="rounded=1;whiteSpace=wrap;html=1;fillColor=#20C997;strokeWidth=0;align=center;horizontal=1;verticalAlign=middle;labelPosition=center;verticalLabelPosition=middle;fontStyle=2" parent="1" vertex="1">
          <mxGeometry x="410" y="-600" width="150" height="60" as="geometry" />
        </mxCell>
        <mxCell id="S6ULCEjZMt_Agh5j2Gnt-35" value="&lt;font face=&quot;Comic Sans MS&quot; color=&quot;#ffffff&quot;&gt;insertOverwriteTable&lt;/font&gt;" style="rounded=1;whiteSpace=wrap;html=1;fillColor=#20C997;strokeWidth=0;align=center;horizontal=1;verticalAlign=middle;labelPosition=center;verticalLabelPosition=middle;fontStyle=2" parent="1" vertex="1">
          <mxGeometry x="640" y="-600" width="150" height="60" as="geometry" />
        </mxCell>
        <mxCell id="S6ULCEjZMt_Agh5j2Gnt-40" value="&lt;font face=&quot;Comic Sans MS&quot; color=&quot;#ffffff&quot;&gt;insert&lt;/font&gt;" style="rounded=1;whiteSpace=wrap;html=1;fillColor=#20C997;strokeWidth=0;align=center;horizontal=1;verticalAlign=middle;labelPosition=center;verticalLabelPosition=middle;fontStyle=2" parent="1" vertex="1">
          <mxGeometry x="410" y="-670" width="150" height="60" as="geometry" />
        </mxCell>
        <mxCell id="S6ULCEjZMt_Agh5j2Gnt-59" value="" style="edgeStyle=orthogonalEdgeStyle;rounded=1;orthogonalLoop=1;jettySize=auto;html=1;fontFamily=Comic Sans MS;fontColor=#FFFFFF;" parent="1" source="S6ULCEjZMt_Agh5j2Gnt-49" target="S6ULCEjZMt_Agh5j2Gnt-58" edge="1">
          <mxGeometry relative="1" as="geometry" />
        </mxCell>
        <mxCell id="S6ULCEjZMt_Agh5j2Gnt-49" value="&lt;font face=&quot;Comic Sans MS&quot; color=&quot;#ffffff&quot;&gt;HoodieSparkCopyOnWriteTable&lt;br&gt;.upsert&lt;/font&gt;" style="rounded=1;whiteSpace=wrap;html=1;fillColor=#20C997;strokeWidth=0;align=center;horizontal=1;verticalAlign=middle;labelPosition=center;verticalLabelPosition=middle;fontStyle=2" parent="1" vertex="1">
          <mxGeometry x="180" y="-460" width="150" height="60" as="geometry" />
        </mxCell>
        <mxCell id="S6ULCEjZMt_Agh5j2Gnt-52" value="&lt;font face=&quot;Comic Sans MS&quot; color=&quot;#ffffff&quot;&gt;HoodieSparkMergeOnReadTable&lt;br&gt;.upsert&lt;/font&gt;" style="rounded=1;whiteSpace=wrap;html=1;fillColor=#20C997;strokeWidth=0;align=center;horizontal=1;verticalAlign=middle;labelPosition=center;verticalLabelPosition=middle;fontStyle=2" parent="1" vertex="1">
          <mxGeometry x="410" y="-460" width="150" height="60" as="geometry" />
        </mxCell>
        <mxCell id="S6ULCEjZMt_Agh5j2Gnt-55" value="&lt;font face=&quot;Comic Sans MS&quot; color=&quot;#ffffff&quot;&gt;HoodieFlinkCopyOnWriteTable&lt;br&gt;.upsert&lt;/font&gt;" style="rounded=1;whiteSpace=wrap;html=1;fillColor=#20C997;strokeWidth=0;align=center;horizontal=1;verticalAlign=middle;labelPosition=center;verticalLabelPosition=middle;fontStyle=2" parent="1" vertex="1">
          <mxGeometry x="640" y="-460" width="150" height="60" as="geometry" />
        </mxCell>
        <mxCell id="S6ULCEjZMt_Agh5j2Gnt-61" value="" style="edgeStyle=orthogonalEdgeStyle;rounded=1;orthogonalLoop=1;jettySize=auto;html=1;fontFamily=Comic Sans MS;fontColor=#FFFFFF;" parent="1" source="S6ULCEjZMt_Agh5j2Gnt-58" target="S6ULCEjZMt_Agh5j2Gnt-60" edge="1">
          <mxGeometry relative="1" as="geometry" />
        </mxCell>
        <mxCell id="S6ULCEjZMt_Agh5j2Gnt-58" value="&lt;font face=&quot;Comic Sans MS&quot; color=&quot;#ffffff&quot;&gt;SparkUpsertCommitActionExecutor&lt;br&gt;.execute&lt;/font&gt;" style="rounded=1;whiteSpace=wrap;html=1;fillColor=#20C997;strokeWidth=0;align=center;horizontal=1;verticalAlign=middle;labelPosition=center;verticalLabelPosition=middle;fontStyle=2" parent="1" vertex="1">
          <mxGeometry x="180" y="-320" width="150" height="60" as="geometry" />
        </mxCell>
        <mxCell id="S6ULCEjZMt_Agh5j2Gnt-63" value="" style="edgeStyle=orthogonalEdgeStyle;rounded=1;orthogonalLoop=1;jettySize=auto;html=1;fontFamily=Comic Sans MS;fontColor=#FFFFFF;" parent="1" source="S6ULCEjZMt_Agh5j2Gnt-60" target="S6ULCEjZMt_Agh5j2Gnt-62" edge="1">
          <mxGeometry relative="1" as="geometry" />
        </mxCell>
        <mxCell id="S6ULCEjZMt_Agh5j2Gnt-60" value="&lt;font face=&quot;Comic Sans MS&quot; color=&quot;#ffffff&quot;&gt;HoodieWriteHelper&lt;br&gt;.execute&lt;/font&gt;" style="rounded=1;whiteSpace=wrap;html=1;fillColor=#20C997;strokeWidth=0;align=center;horizontal=1;verticalAlign=middle;labelPosition=center;verticalLabelPosition=middle;fontStyle=2" parent="1" vertex="1">
          <mxGeometry x="410" y="-320" width="150" height="60" as="geometry" />
        </mxCell>
        <mxCell id="S6ULCEjZMt_Agh5j2Gnt-65" value="" style="edgeStyle=orthogonalEdgeStyle;rounded=1;orthogonalLoop=1;jettySize=auto;html=1;fontFamily=Comic Sans MS;fontColor=#FFFFFF;" parent="1" source="S6ULCEjZMt_Agh5j2Gnt-62" target="S6ULCEjZMt_Agh5j2Gnt-64" edge="1">
          <mxGeometry relative="1" as="geometry" />
        </mxCell>
        <mxCell id="S6ULCEjZMt_Agh5j2Gnt-62" value="&lt;font face=&quot;Comic Sans MS&quot; color=&quot;#ffffff&quot;&gt;BaseSparkCommitActionExecutor&lt;br&gt;.execute&lt;/font&gt;" style="rounded=1;whiteSpace=wrap;html=1;fillColor=#20C997;strokeWidth=0;align=center;horizontal=1;verticalAlign=middle;labelPosition=center;verticalLabelPosition=middle;fontStyle=2" parent="1" vertex="1">
          <mxGeometry x="640" y="-320" width="150" height="60" as="geometry" />
        </mxCell>
        <mxCell id="S6ULCEjZMt_Agh5j2Gnt-67" value="" style="edgeStyle=orthogonalEdgeStyle;rounded=1;orthogonalLoop=1;jettySize=auto;html=1;fontFamily=Comic Sans MS;fontColor=#FFFFFF;" parent="1" source="S6ULCEjZMt_Agh5j2Gnt-64" target="S6ULCEjZMt_Agh5j2Gnt-66" edge="1">
          <mxGeometry relative="1" as="geometry" />
        </mxCell>
        <mxCell id="S6ULCEjZMt_Agh5j2Gnt-70" style="edgeStyle=orthogonalEdgeStyle;rounded=1;orthogonalLoop=1;jettySize=auto;html=1;exitX=0;exitY=0.5;exitDx=0;exitDy=0;entryX=1;entryY=0.5;entryDx=0;entryDy=0;fontFamily=Comic Sans MS;fontColor=#FFFFFF;" parent="1" source="S6ULCEjZMt_Agh5j2Gnt-64" target="S6ULCEjZMt_Agh5j2Gnt-68" edge="1">
          <mxGeometry relative="1" as="geometry" />
        </mxCell>
        <mxCell id="S6ULCEjZMt_Agh5j2Gnt-64" value="&lt;font face=&quot;Comic Sans MS&quot; color=&quot;#ffffff&quot;&gt;BaseSparkCommitActionExecutor&lt;br&gt;.mapPartitionsAsRDD&lt;/font&gt;" style="rounded=1;whiteSpace=wrap;html=1;fillColor=#20C997;strokeWidth=0;align=center;horizontal=1;verticalAlign=middle;labelPosition=center;verticalLabelPosition=middle;fontStyle=2" parent="1" vertex="1">
          <mxGeometry x="640" y="-180" width="150" height="60" as="geometry" />
        </mxCell>
        <mxCell id="S6ULCEjZMt_Agh5j2Gnt-72" value="" style="edgeStyle=orthogonalEdgeStyle;rounded=1;orthogonalLoop=1;jettySize=auto;html=1;fontFamily=Comic Sans MS;fontColor=#FFFFFF;" parent="1" source="S6ULCEjZMt_Agh5j2Gnt-66" target="S6ULCEjZMt_Agh5j2Gnt-71" edge="1">
          <mxGeometry relative="1" as="geometry" />
        </mxCell>
        <mxCell id="S6ULCEjZMt_Agh5j2Gnt-75" style="edgeStyle=orthogonalEdgeStyle;rounded=1;orthogonalLoop=1;jettySize=auto;html=1;exitX=0;exitY=0.5;exitDx=0;exitDy=0;entryX=1;entryY=0.5;entryDx=0;entryDy=0;fontFamily=Comic Sans MS;fontColor=#FFFFFF;" parent="1" source="S6ULCEjZMt_Agh5j2Gnt-66" target="S6ULCEjZMt_Agh5j2Gnt-73" edge="1">
          <mxGeometry relative="1" as="geometry" />
        </mxCell>
        <mxCell id="S6ULCEjZMt_Agh5j2Gnt-66" value="&lt;font face=&quot;Comic Sans MS&quot; color=&quot;#ffffff&quot;&gt;BaseSparkCommitActionExecutor&lt;br&gt;.handleUpsertPartition&lt;/font&gt;" style="rounded=1;whiteSpace=wrap;html=1;fillColor=#20C997;strokeWidth=0;align=center;horizontal=1;verticalAlign=middle;labelPosition=center;verticalLabelPosition=middle;fontStyle=2" parent="1" vertex="1">
          <mxGeometry x="410" y="-180" width="150" height="60" as="geometry" />
        </mxCell>
        <mxCell id="S6ULCEjZMt_Agh5j2Gnt-68" value="&lt;font face=&quot;Comic Sans MS&quot; color=&quot;#ffffff&quot;&gt;BaseSparkCommitActionExecutor&lt;br&gt;.handleInsertPartition&lt;/font&gt;" style="rounded=1;whiteSpace=wrap;html=1;fillColor=#20C997;strokeWidth=0;align=center;horizontal=1;verticalAlign=middle;labelPosition=center;verticalLabelPosition=middle;fontStyle=2" parent="1" vertex="1">
          <mxGeometry x="410" y="-104" width="150" height="60" as="geometry" />
        </mxCell>
        <mxCell id="S6ULCEjZMt_Agh5j2Gnt-78" style="edgeStyle=orthogonalEdgeStyle;rounded=1;orthogonalLoop=1;jettySize=auto;html=1;exitX=0;exitY=0.5;exitDx=0;exitDy=0;entryX=0;entryY=0.5;entryDx=0;entryDy=0;fontFamily=Comic Sans MS;fontColor=#FFFFFF;" parent="1" source="S6ULCEjZMt_Agh5j2Gnt-71" target="S6ULCEjZMt_Agh5j2Gnt-76" edge="1">
          <mxGeometry relative="1" as="geometry" />
        </mxCell>
        <mxCell id="S6ULCEjZMt_Agh5j2Gnt-71" value="&lt;font face=&quot;Comic Sans MS&quot; color=&quot;#ffffff&quot;&gt;BaseSparkCommitActionExecutor&lt;br&gt;.handleUpdate&lt;/font&gt;" style="rounded=1;whiteSpace=wrap;html=1;fillColor=#20C997;strokeWidth=0;align=center;horizontal=1;verticalAlign=middle;labelPosition=center;verticalLabelPosition=middle;fontStyle=2" parent="1" vertex="1">
          <mxGeometry x="180" y="-180" width="150" height="60" as="geometry" />
        </mxCell>
        <mxCell id="S6ULCEjZMt_Agh5j2Gnt-73" value="&lt;font face=&quot;Comic Sans MS&quot; color=&quot;#ffffff&quot;&gt;BaseSparkCommitActionExecutor&lt;br&gt;.handleUpdate&lt;/font&gt;" style="rounded=1;whiteSpace=wrap;html=1;fillColor=#20C997;strokeWidth=0;align=center;horizontal=1;verticalAlign=middle;labelPosition=center;verticalLabelPosition=middle;fontStyle=2" parent="1" vertex="1">
          <mxGeometry x="180" y="-104" width="150" height="60" as="geometry" />
        </mxCell>
        <mxCell id="S6ULCEjZMt_Agh5j2Gnt-80" value="" style="edgeStyle=orthogonalEdgeStyle;rounded=1;orthogonalLoop=1;jettySize=auto;html=1;fontFamily=Comic Sans MS;fontColor=#FFFFFF;" parent="1" source="S6ULCEjZMt_Agh5j2Gnt-76" target="S6ULCEjZMt_Agh5j2Gnt-79" edge="1">
          <mxGeometry relative="1" as="geometry" />
        </mxCell>
        <mxCell id="S6ULCEjZMt_Agh5j2Gnt-84" value="" style="edgeStyle=orthogonalEdgeStyle;rounded=1;orthogonalLoop=1;jettySize=auto;html=1;fontFamily=Comic Sans MS;fontColor=#FFFFFF;" parent="1" source="S6ULCEjZMt_Agh5j2Gnt-76" target="S6ULCEjZMt_Agh5j2Gnt-83" edge="1">
          <mxGeometry relative="1" as="geometry" />
        </mxCell>
        <mxCell id="S6ULCEjZMt_Agh5j2Gnt-89" style="edgeStyle=orthogonalEdgeStyle;rounded=1;orthogonalLoop=1;jettySize=auto;html=1;exitX=1;exitY=0.5;exitDx=0;exitDy=0;entryX=0.5;entryY=1;entryDx=0;entryDy=0;fontFamily=Comic Sans MS;fontColor=#FFFFFF;" parent="1" source="S6ULCEjZMt_Agh5j2Gnt-76" target="S6ULCEjZMt_Agh5j2Gnt-85" edge="1">
          <mxGeometry relative="1" as="geometry">
            <Array as="points">
              <mxPoint x="380" y="-10" />
              <mxPoint x="380" y="40" />
              <mxPoint x="715" y="40" />
            </Array>
          </mxGeometry>
        </mxCell>
        <mxCell id="S6ULCEjZMt_Agh5j2Gnt-76" value="&lt;font face=&quot;Comic Sans MS&quot; color=&quot;#ffffff&quot;&gt;BaseSparkCommitActionExecutor&lt;br&gt;.getUpdateHandle&lt;/font&gt;" style="rounded=1;whiteSpace=wrap;html=1;fillColor=#20C997;strokeWidth=0;align=center;horizontal=1;verticalAlign=middle;labelPosition=center;verticalLabelPosition=middle;fontStyle=2" parent="1" vertex="1">
          <mxGeometry x="180" y="-40" width="150" height="60" as="geometry" />
        </mxCell>
        <mxCell id="S6ULCEjZMt_Agh5j2Gnt-82" value="" style="edgeStyle=orthogonalEdgeStyle;rounded=1;orthogonalLoop=1;jettySize=auto;html=1;fontFamily=Comic Sans MS;fontColor=#FFFFFF;" parent="1" source="S6ULCEjZMt_Agh5j2Gnt-79" target="S6ULCEjZMt_Agh5j2Gnt-81" edge="1">
          <mxGeometry relative="1" as="geometry" />
        </mxCell>
        <mxCell id="S6ULCEjZMt_Agh5j2Gnt-79" value="&lt;font face=&quot;Comic Sans MS&quot; color=&quot;#ffffff&quot;&gt;BaseSparkCommitActionExecutor&lt;br&gt;.handleUpdateInternal&lt;/font&gt;" style="rounded=1;whiteSpace=wrap;html=1;fillColor=#20C997;strokeWidth=0;align=center;horizontal=1;verticalAlign=middle;labelPosition=center;verticalLabelPosition=middle;fontStyle=2" parent="1" vertex="1">
          <mxGeometry x="180" y="100" width="150" height="60" as="geometry" />
        </mxCell>
        <mxCell id="S6ULCEjZMt_Agh5j2Gnt-91" value="" style="edgeStyle=orthogonalEdgeStyle;rounded=1;orthogonalLoop=1;jettySize=auto;html=1;fontFamily=Comic Sans MS;fontColor=#FFFFFF;" parent="1" source="S6ULCEjZMt_Agh5j2Gnt-81" target="S6ULCEjZMt_Agh5j2Gnt-90" edge="1">
          <mxGeometry relative="1" as="geometry" />
        </mxCell>
        <mxCell id="S6ULCEjZMt_Agh5j2Gnt-81" value="&lt;font face=&quot;Comic Sans MS&quot; color=&quot;#ffffff&quot;&gt;MergeHelperHolder&lt;br&gt;.runMerge&lt;/font&gt;" style="rounded=1;whiteSpace=wrap;html=1;fillColor=#20C997;strokeWidth=0;align=center;horizontal=1;verticalAlign=middle;labelPosition=center;verticalLabelPosition=middle;fontStyle=2" parent="1" vertex="1">
          <mxGeometry x="410" y="100" width="150" height="60" as="geometry" />
        </mxCell>
        <mxCell id="S6ULCEjZMt_Agh5j2Gnt-83" value="&lt;font face=&quot;Comic Sans MS&quot; color=&quot;#ffffff&quot;&gt;HoodieSortedMergeHandle&lt;/font&gt;" style="rounded=1;whiteSpace=wrap;html=1;fillColor=#20C997;strokeWidth=0;align=center;horizontal=1;verticalAlign=middle;labelPosition=center;verticalLabelPosition=middle;fontStyle=2" parent="1" vertex="1">
          <mxGeometry x="410" y="-40" width="150" height="60" as="geometry" />
        </mxCell>
        <mxCell id="mVQr-RK8QnGpjl5GigDb-14" style="edgeStyle=orthogonalEdgeStyle;rounded=1;orthogonalLoop=1;jettySize=auto;html=1;exitX=1;exitY=0.5;exitDx=0;exitDy=0;entryX=1;entryY=0.5;entryDx=0;entryDy=0;" edge="1" parent="1" source="S6ULCEjZMt_Agh5j2Gnt-85" target="mVQr-RK8QnGpjl5GigDb-12">
          <mxGeometry relative="1" as="geometry" />
        </mxCell>
        <mxCell id="S6ULCEjZMt_Agh5j2Gnt-85" value="&lt;font face=&quot;Comic Sans MS&quot; color=&quot;#ffffff&quot;&gt;HoodieMergeHandle&lt;/font&gt;" style="rounded=1;whiteSpace=wrap;html=1;fillColor=#20C997;strokeWidth=0;align=center;horizontal=1;verticalAlign=middle;labelPosition=center;verticalLabelPosition=middle;fontStyle=2" parent="1" vertex="1">
          <mxGeometry x="640" y="-40" width="150" height="60" as="geometry" />
        </mxCell>
        <mxCell id="mVQr-RK8QnGpjl5GigDb-2" value="" style="edgeStyle=orthogonalEdgeStyle;rounded=0;orthogonalLoop=1;jettySize=auto;html=1;" edge="1" parent="1" source="S6ULCEjZMt_Agh5j2Gnt-90" target="mVQr-RK8QnGpjl5GigDb-1">
          <mxGeometry relative="1" as="geometry" />
        </mxCell>
        <mxCell id="mVQr-RK8QnGpjl5GigDb-5" style="edgeStyle=orthogonalEdgeStyle;rounded=1;orthogonalLoop=1;jettySize=auto;html=1;exitX=0.5;exitY=1;exitDx=0;exitDy=0;entryX=1;entryY=0.5;entryDx=0;entryDy=0;" edge="1" parent="1" source="S6ULCEjZMt_Agh5j2Gnt-90" target="mVQr-RK8QnGpjl5GigDb-3">
          <mxGeometry relative="1" as="geometry">
            <Array as="points">
              <mxPoint x="715" y="195" />
              <mxPoint x="601" y="195" />
              <mxPoint x="601" y="270" />
            </Array>
          </mxGeometry>
        </mxCell>
        <mxCell id="S6ULCEjZMt_Agh5j2Gnt-90" value="&lt;font face=&quot;Comic Sans MS&quot; color=&quot;#ffffff&quot;&gt;BoundedInMemoryExecutor&lt;br&gt;.execute()&lt;/font&gt;" style="rounded=1;whiteSpace=wrap;html=1;fillColor=#20C997;strokeWidth=0;align=center;horizontal=1;verticalAlign=middle;labelPosition=center;verticalLabelPosition=middle;fontStyle=2" parent="1" vertex="1">
          <mxGeometry x="640" y="100" width="150" height="60" as="geometry" />
        </mxCell>
        <mxCell id="mVQr-RK8QnGpjl5GigDb-1" value="&lt;font face=&quot;Comic Sans MS&quot; color=&quot;#ffffff&quot;&gt;BoundedInMemoryExecutor&lt;br&gt;.startProducers()&lt;/font&gt;" style="rounded=1;whiteSpace=wrap;html=1;fillColor=#20C997;strokeWidth=0;align=center;horizontal=1;verticalAlign=middle;labelPosition=center;verticalLabelPosition=middle;fontStyle=2" vertex="1" parent="1">
          <mxGeometry x="640" y="240" width="150" height="60" as="geometry" />
        </mxCell>
        <mxCell id="mVQr-RK8QnGpjl5GigDb-7" value="" style="edgeStyle=orthogonalEdgeStyle;rounded=1;orthogonalLoop=1;jettySize=auto;html=1;" edge="1" parent="1" source="mVQr-RK8QnGpjl5GigDb-3" target="mVQr-RK8QnGpjl5GigDb-6">
          <mxGeometry relative="1" as="geometry" />
        </mxCell>
        <mxCell id="mVQr-RK8QnGpjl5GigDb-3" value="&lt;font face=&quot;Comic Sans MS&quot; color=&quot;#ffffff&quot;&gt;BoundedInMemoryExecutor&lt;br&gt;.startConsumer()&lt;/font&gt;" style="rounded=1;whiteSpace=wrap;html=1;fillColor=#20C997;strokeWidth=0;align=center;horizontal=1;verticalAlign=middle;labelPosition=center;verticalLabelPosition=middle;fontStyle=2" vertex="1" parent="1">
          <mxGeometry x="410" y="240" width="150" height="60" as="geometry" />
        </mxCell>
        <mxCell id="mVQr-RK8QnGpjl5GigDb-9" value="" style="edgeStyle=orthogonalEdgeStyle;rounded=1;orthogonalLoop=1;jettySize=auto;html=1;" edge="1" parent="1" source="mVQr-RK8QnGpjl5GigDb-6" target="mVQr-RK8QnGpjl5GigDb-8">
          <mxGeometry relative="1" as="geometry" />
        </mxCell>
        <mxCell id="mVQr-RK8QnGpjl5GigDb-6" value="&lt;font face=&quot;Comic Sans MS&quot; color=&quot;#ffffff&quot;&gt;consumer.consume&lt;/font&gt;" style="rounded=1;whiteSpace=wrap;html=1;fillColor=#20C997;strokeWidth=0;align=center;horizontal=1;verticalAlign=middle;labelPosition=center;verticalLabelPosition=middle;fontStyle=2" vertex="1" parent="1">
          <mxGeometry x="180" y="240" width="150" height="60" as="geometry" />
        </mxCell>
        <mxCell id="mVQr-RK8QnGpjl5GigDb-11" value="" style="edgeStyle=orthogonalEdgeStyle;rounded=1;orthogonalLoop=1;jettySize=auto;html=1;" edge="1" parent="1" source="mVQr-RK8QnGpjl5GigDb-8" target="mVQr-RK8QnGpjl5GigDb-10">
          <mxGeometry relative="1" as="geometry" />
        </mxCell>
        <mxCell id="mVQr-RK8QnGpjl5GigDb-8" value="&lt;font face=&quot;Comic Sans MS&quot; color=&quot;#ffffff&quot;&gt;BoundedInMemoryQueueConsumer&lt;br&gt;.consume&lt;/font&gt;" style="rounded=1;whiteSpace=wrap;html=1;fillColor=#20C997;strokeWidth=0;align=center;horizontal=1;verticalAlign=middle;labelPosition=center;verticalLabelPosition=middle;fontStyle=2" vertex="1" parent="1">
          <mxGeometry x="180" y="380" width="150" height="60" as="geometry" />
        </mxCell>
        <mxCell id="mVQr-RK8QnGpjl5GigDb-13" value="" style="edgeStyle=orthogonalEdgeStyle;rounded=1;orthogonalLoop=1;jettySize=auto;html=1;" edge="1" parent="1" source="mVQr-RK8QnGpjl5GigDb-10" target="mVQr-RK8QnGpjl5GigDb-12">
          <mxGeometry relative="1" as="geometry" />
        </mxCell>
        <mxCell id="mVQr-RK8QnGpjl5GigDb-10" value="&lt;font face=&quot;Comic Sans MS&quot; color=&quot;#ffffff&quot;&gt;UpdateHandler&lt;br&gt;.consumeOneRecord&lt;/font&gt;" style="rounded=1;whiteSpace=wrap;html=1;fillColor=#20C997;strokeWidth=0;align=center;horizontal=1;verticalAlign=middle;labelPosition=center;verticalLabelPosition=middle;fontStyle=2" vertex="1" parent="1">
          <mxGeometry x="410" y="380" width="150" height="60" as="geometry" />
        </mxCell>
        <mxCell id="mVQr-RK8QnGpjl5GigDb-16" value="" style="edgeStyle=orthogonalEdgeStyle;rounded=1;orthogonalLoop=1;jettySize=auto;html=1;" edge="1" parent="1" source="mVQr-RK8QnGpjl5GigDb-12" target="mVQr-RK8QnGpjl5GigDb-15">
          <mxGeometry relative="1" as="geometry" />
        </mxCell>
        <mxCell id="mVQr-RK8QnGpjl5GigDb-12" value="&lt;font face=&quot;Comic Sans MS&quot; color=&quot;#ffffff&quot;&gt;upsertHandle.write&lt;/font&gt;" style="rounded=1;whiteSpace=wrap;html=1;fillColor=#20C997;strokeWidth=0;align=center;horizontal=1;verticalAlign=middle;labelPosition=center;verticalLabelPosition=middle;fontStyle=2" vertex="1" parent="1">
          <mxGeometry x="640" y="380" width="150" height="60" as="geometry" />
        </mxCell>
        <mxCell id="mVQr-RK8QnGpjl5GigDb-18" value="" style="edgeStyle=orthogonalEdgeStyle;rounded=1;orthogonalLoop=1;jettySize=auto;html=1;" edge="1" parent="1" source="mVQr-RK8QnGpjl5GigDb-15" target="mVQr-RK8QnGpjl5GigDb-17">
          <mxGeometry relative="1" as="geometry" />
        </mxCell>
        <mxCell id="mVQr-RK8QnGpjl5GigDb-15" value="&lt;font face=&quot;Comic Sans MS&quot; color=&quot;#ffffff&quot;&gt;upsertHandle.write&lt;/font&gt;" style="rounded=1;whiteSpace=wrap;html=1;fillColor=#20C997;strokeWidth=0;align=center;horizontal=1;verticalAlign=middle;labelPosition=center;verticalLabelPosition=middle;fontStyle=2" vertex="1" parent="1">
          <mxGeometry x="640" y="520" width="150" height="60" as="geometry" />
        </mxCell>
        <mxCell id="mVQr-RK8QnGpjl5GigDb-20" value="" style="edgeStyle=orthogonalEdgeStyle;rounded=1;orthogonalLoop=1;jettySize=auto;html=1;" edge="1" parent="1" source="mVQr-RK8QnGpjl5GigDb-17" target="mVQr-RK8QnGpjl5GigDb-19">
          <mxGeometry relative="1" as="geometry" />
        </mxCell>
        <mxCell id="mVQr-RK8QnGpjl5GigDb-17" value="&lt;span style=&quot;color: rgb(255, 255, 255); font-family: &amp;quot;Comic Sans MS&amp;quot;;&quot;&gt;HoodieMergeHandle.&lt;br&gt;&lt;/span&gt;&lt;font face=&quot;Comic Sans MS&quot; color=&quot;#ffffff&quot;&gt;.writeUpdateRecord&lt;/font&gt;" style="rounded=1;whiteSpace=wrap;html=1;fillColor=#20C997;strokeWidth=0;align=center;horizontal=1;verticalAlign=middle;labelPosition=center;verticalLabelPosition=middle;fontStyle=2" vertex="1" parent="1">
          <mxGeometry x="410" y="520" width="150" height="60" as="geometry" />
        </mxCell>
        <mxCell id="mVQr-RK8QnGpjl5GigDb-22" value="" style="edgeStyle=orthogonalEdgeStyle;rounded=1;orthogonalLoop=1;jettySize=auto;html=1;" edge="1" parent="1" source="mVQr-RK8QnGpjl5GigDb-19" target="mVQr-RK8QnGpjl5GigDb-21">
          <mxGeometry relative="1" as="geometry" />
        </mxCell>
        <mxCell id="mVQr-RK8QnGpjl5GigDb-19" value="&lt;span style=&quot;color: rgb(255, 255, 255); font-family: &amp;quot;Comic Sans MS&amp;quot;;&quot;&gt;HoodieMergeHandle.&lt;br&gt;&lt;/span&gt;&lt;font face=&quot;Comic Sans MS&quot; color=&quot;#ffffff&quot;&gt;.writeRecord&lt;/font&gt;" style="rounded=1;whiteSpace=wrap;html=1;fillColor=#20C997;strokeWidth=0;align=center;horizontal=1;verticalAlign=middle;labelPosition=center;verticalLabelPosition=middle;fontStyle=2" vertex="1" parent="1">
          <mxGeometry x="180" y="520" width="150" height="60" as="geometry" />
        </mxCell>
        <mxCell id="mVQr-RK8QnGpjl5GigDb-24" value="" style="edgeStyle=orthogonalEdgeStyle;rounded=1;orthogonalLoop=1;jettySize=auto;html=1;" edge="1" parent="1" source="mVQr-RK8QnGpjl5GigDb-21" target="mVQr-RK8QnGpjl5GigDb-23">
          <mxGeometry relative="1" as="geometry" />
        </mxCell>
        <mxCell id="mVQr-RK8QnGpjl5GigDb-21" value="&lt;span style=&quot;color: rgb(255, 255, 255); font-family: &amp;quot;Comic Sans MS&amp;quot;;&quot;&gt;HoodieMergeHandle.&lt;br&gt;&lt;/span&gt;&lt;font face=&quot;Comic Sans MS&quot; color=&quot;#ffffff&quot;&gt;.writeToFile&lt;/font&gt;" style="rounded=1;whiteSpace=wrap;html=1;fillColor=#20C997;strokeWidth=0;align=center;horizontal=1;verticalAlign=middle;labelPosition=center;verticalLabelPosition=middle;fontStyle=2" vertex="1" parent="1">
          <mxGeometry x="180" y="660" width="150" height="60" as="geometry" />
        </mxCell>
        <mxCell id="mVQr-RK8QnGpjl5GigDb-26" value="" style="edgeStyle=orthogonalEdgeStyle;rounded=1;orthogonalLoop=1;jettySize=auto;html=1;" edge="1" parent="1" source="mVQr-RK8QnGpjl5GigDb-23" target="mVQr-RK8QnGpjl5GigDb-25">
          <mxGeometry relative="1" as="geometry" />
        </mxCell>
        <mxCell id="mVQr-RK8QnGpjl5GigDb-28" style="edgeStyle=orthogonalEdgeStyle;rounded=1;orthogonalLoop=1;jettySize=auto;html=1;exitX=1;exitY=0.5;exitDx=0;exitDy=0;entryX=0;entryY=0.5;entryDx=0;entryDy=0;" edge="1" parent="1" source="mVQr-RK8QnGpjl5GigDb-23" target="mVQr-RK8QnGpjl5GigDb-27">
          <mxGeometry relative="1" as="geometry" />
        </mxCell>
        <mxCell id="mVQr-RK8QnGpjl5GigDb-23" value="&lt;span style=&quot;color: rgb(255, 255, 255); font-family: &amp;quot;Comic Sans MS&amp;quot;;&quot;&gt;HoodieMergeHandle.&lt;br&gt;&lt;/span&gt;&lt;font face=&quot;Comic Sans MS&quot; color=&quot;#ffffff&quot;&gt;.writeToFile&lt;/font&gt;" style="rounded=1;whiteSpace=wrap;html=1;fillColor=#20C997;strokeWidth=0;align=center;horizontal=1;verticalAlign=middle;labelPosition=center;verticalLabelPosition=middle;fontStyle=2" vertex="1" parent="1">
          <mxGeometry x="410" y="660" width="150" height="60" as="geometry" />
        </mxCell>
        <mxCell id="mVQr-RK8QnGpjl5GigDb-30" value="" style="edgeStyle=orthogonalEdgeStyle;rounded=1;orthogonalLoop=1;jettySize=auto;html=1;" edge="1" parent="1" source="mVQr-RK8QnGpjl5GigDb-25" target="mVQr-RK8QnGpjl5GigDb-29">
          <mxGeometry relative="1" as="geometry" />
        </mxCell>
        <mxCell id="mVQr-RK8QnGpjl5GigDb-35" style="edgeStyle=orthogonalEdgeStyle;rounded=1;orthogonalLoop=1;jettySize=auto;html=1;exitX=0.5;exitY=1;exitDx=0;exitDy=0;entryX=0.5;entryY=0;entryDx=0;entryDy=0;" edge="1" parent="1" source="mVQr-RK8QnGpjl5GigDb-25" target="mVQr-RK8QnGpjl5GigDb-31">
          <mxGeometry relative="1" as="geometry" />
        </mxCell>
        <mxCell id="mVQr-RK8QnGpjl5GigDb-36" style="edgeStyle=orthogonalEdgeStyle;rounded=1;orthogonalLoop=1;jettySize=auto;html=1;exitX=0.5;exitY=1;exitDx=0;exitDy=0;" edge="1" parent="1" source="mVQr-RK8QnGpjl5GigDb-25" target="mVQr-RK8QnGpjl5GigDb-33">
          <mxGeometry relative="1" as="geometry" />
        </mxCell>
        <mxCell id="mVQr-RK8QnGpjl5GigDb-25" value="&lt;font face=&quot;Comic Sans MS&quot; color=&quot;#ffffff&quot;&gt;fileWriter.writeAvro&lt;/font&gt;" style="rounded=1;whiteSpace=wrap;html=1;fillColor=#20C997;strokeWidth=0;align=center;horizontal=1;verticalAlign=middle;labelPosition=center;verticalLabelPosition=middle;fontStyle=2" vertex="1" parent="1">
          <mxGeometry x="640" y="660" width="150" height="60" as="geometry" />
        </mxCell>
        <mxCell id="mVQr-RK8QnGpjl5GigDb-27" value="&lt;font face=&quot;Comic Sans MS&quot; color=&quot;#ffffff&quot;&gt;fileWriter&lt;br&gt;.writeAvroWithMetadata&lt;/font&gt;" style="rounded=1;whiteSpace=wrap;html=1;fillColor=#20C997;strokeWidth=0;align=center;horizontal=1;verticalAlign=middle;labelPosition=center;verticalLabelPosition=middle;fontStyle=2" vertex="1" parent="1">
          <mxGeometry x="640" y="594" width="150" height="60" as="geometry" />
        </mxCell>
        <mxCell id="mVQr-RK8QnGpjl5GigDb-29" value="&lt;font face=&quot;Comic Sans MS&quot; color=&quot;#ffffff&quot;&gt;.hfile&lt;br&gt;HoodieHFileWriter&lt;br&gt;.writeAvro&lt;/font&gt;" style="rounded=1;whiteSpace=wrap;html=1;fillColor=#20C997;strokeWidth=0;align=center;horizontal=1;verticalAlign=middle;labelPosition=center;verticalLabelPosition=middle;fontStyle=2" vertex="1" parent="1">
          <mxGeometry x="640" y="800" width="150" height="60" as="geometry" />
        </mxCell>
        <mxCell id="mVQr-RK8QnGpjl5GigDb-31" value="&lt;font face=&quot;Comic Sans MS&quot; color=&quot;#ffffff&quot;&gt;.orc&lt;br&gt;HoodieOrcWriter&lt;br&gt;.writeAvro&lt;/font&gt;" style="rounded=1;whiteSpace=wrap;html=1;fillColor=#20C997;strokeWidth=0;align=center;horizontal=1;verticalAlign=middle;labelPosition=center;verticalLabelPosition=middle;fontStyle=2" vertex="1" parent="1">
          <mxGeometry x="410" y="800" width="150" height="60" as="geometry" />
        </mxCell>
        <mxCell id="mVQr-RK8QnGpjl5GigDb-33" value="&lt;font face=&quot;Comic Sans MS&quot; color=&quot;#ffffff&quot;&gt;.parquet&lt;br&gt;HoodieAvroParquetWriter&lt;br&gt;.writeAvro&lt;/font&gt;" style="rounded=1;whiteSpace=wrap;html=1;fillColor=#20C997;strokeWidth=0;align=center;horizontal=1;verticalAlign=middle;labelPosition=center;verticalLabelPosition=middle;fontStyle=2" vertex="1" parent="1">
          <mxGeometry x="180" y="800" width="150" height="60" as="geometry" />
        </mxCell>
      </root>
    </mxGraphModel>
  </diagram>
</mxfile>
